<svg height="512pt" viewBox="0 -33 512 511" width="512pt" xmlns="http://www.w3.org/2000/svg"><path d="m93 369.128906c0 8.835938-7.164062 16-16 16s-16-7.164062-16-16c0-8.835937 7.164062-16 16-16s16 7.164063 16 16zm0 0"/><path d="m394.5 211.128906c-2.679688 0-5.335938.097656-7.972656.273438l-41.855469-210.902344h-93.027344v30h68.394531l22.582032 113.773438c-42.410156 2.085937-81 10.507812-114.945313 25.144531-31.96875 13.785156-59.871093 33.039062-82.933593 57.226562-.265626.277344-.523438.554688-.785157.832031l-32.097656-39.347656h46.140625v-26.5c0-35.015625-28.484375-63.5-63.5-63.5h-66.5v90h45.140625l51.277344 62.855469c-12.65625 17.367187-20.652344 33.253906-25.382813 44.375-6.984375-2.09375-14.378906-3.230469-22.035156-3.230469-42.457031 0-77 34.542969-77 77 0 42.457032 34.542969 77 77 77s77-34.542968 77-77c0-24.027344-11.066406-45.511718-28.367188-59.644531 5.28125-13.046875 17.316407-37.488281 40.820313-62.136719 43.722656-45.855468 104.921875-70.488281 182.070313-73.328125l8.578124 43.210938c-46.511718 15.660156-80.101562 59.675781-80.101562 111.398437 0 64.789063 52.710938 117.5 117.5 117.5s117.5-52.710937 117.5-117.5c0-64.789062-52.710938-117.5-117.5-117.5zm-336.5-83h36.5c17.289062 0 31.5625 13.164063 33.316406 30h-69.816406zm19 288c-25.914062 0-47-21.085937-47-47 0-25.917968 21.085938-47 47-47s47 21.082032 47 47c0 25.914063-21.085938 47-47 47zm317.5 0c-48.246094 0-87.5-39.253906-87.5-87.5 0-37.152344 23.273438-68.964844 56.007812-81.636718l16.777344 84.554687 29.429688-5.839844-16.78125-84.554687c.6875-.015625 1.375-.023438 2.066406-.023438 48.246094 0 87.5 39.25 87.5 87.5 0 48.246094-39.253906 87.5-87.5 87.5zm0 0"/></svg>